<svg xmlns="http://www.w3.org/2000/svg" width="1280" height="714" style="cursor: move;"><g transform="translate(0.8683027332002666,-143.52416029849428) scale(1.3286858140965168)"><path class="link" marker-end="" d="M530,287, 660,287" style="stroke-width: 0.5px; stroke-opacity: 1; stroke: rgb(0, 253, 255);"></path><path class="link" marker-end="" d="M530,287, 660,327" style="stroke-width: 0.5px; stroke-opacity: 1; stroke: rgb(0, 253, 255);"></path><path class="link" marker-end="" d="M530,287, 660,367" style="stroke-width: 0.5px; stroke-opacity: 1; stroke: rgb(0, 253, 255);"></path><path class="link" marker-end="" d="M530,287, 660,407" style="stroke-width: 0.5px; stroke-opacity: 1; stroke: rgb(0, 253, 255);"></path><path class="link" marker-end="" d="M530,327, 660,287" style="stroke-width: 0.5px; stroke-opacity: 1; stroke: rgb(0, 253, 255);"></path><path class="link" marker-end="" d="M530,327, 660,327" style="stroke-width: 0.5px; stroke-opacity: 1; stroke: rgb(0, 253, 255);"></path><path class="link" marker-end="" d="M530,327, 660,367" style="stroke-width: 0.5px; stroke-opacity: 1; stroke: rgb(0, 253, 255);"></path><path class="link" marker-end="" d="M530,327, 660,407" style="stroke-width: 0.5px; stroke-opacity: 1; stroke: rgb(0, 253, 255);"></path><path class="link" marker-end="" d="M530,367, 660,287" style="stroke-width: 0.5px; stroke-opacity: 1; stroke: rgb(0, 253, 255);"></path><path class="link" marker-end="" d="M530,367, 660,327" style="stroke-width: 0.5px; stroke-opacity: 1; stroke: rgb(0, 253, 255);"></path><path class="link" marker-end="" d="M530,367, 660,367" style="stroke-width: 0.5px; stroke-opacity: 1; stroke: rgb(0, 253, 255);"></path><path class="link" marker-end="" d="M530,367, 660,407" style="stroke-width: 0.5px; stroke-opacity: 1; stroke: rgb(0, 253, 255);"></path><path class="link" marker-end="" d="M530,407, 660,287" style="stroke-width: 0.5px; stroke-opacity: 1; stroke: rgb(0, 253, 255);"></path><path class="link" marker-end="" d="M530,407, 660,327" style="stroke-width: 0.5px; stroke-opacity: 1; stroke: rgb(0, 253, 255);"></path><path class="link" marker-end="" d="M530,407, 660,367" style="stroke-width: 0.5px; stroke-opacity: 1; stroke: rgb(0, 253, 255);"></path><path class="link" marker-end="" d="M530,407, 660,407" style="stroke-width: 0.5px; stroke-opacity: 1; stroke: rgb(0, 253, 255);"></path><path class="link" marker-end="" d="M660,287, 790,347" style="stroke-width: 0.5px; stroke-opacity: 1; stroke: rgb(0, 253, 255);"></path><path class="link" marker-end="" d="M660,327, 790,347" style="stroke-width: 0.5px; stroke-opacity: 1; stroke: rgb(0, 253, 255);"></path><path class="link" marker-end="" d="M660,367, 790,347" style="stroke-width: 0.5px; stroke-opacity: 1; stroke: rgb(0, 253, 255);"></path><path class="link" marker-end="" d="M660,407, 790,347" style="stroke-width: 0.5px; stroke-opacity: 1; stroke: rgb(0, 253, 255);"></path><circle r="15.5" class="node" id="0_0" cx="530" cy="287" style="fill: rgb(115, 253, 255); stroke: rgb(115, 253, 255);"></circle><circle r="15.5" class="node" id="0_1" cx="530" cy="327" style="fill: rgb(115, 253, 255); stroke: rgb(115, 253, 255);"></circle><circle r="15.5" class="node" id="0_2" cx="530" cy="367" style="fill: rgb(115, 253, 255); stroke: rgb(115, 253, 255);"></circle><circle r="15.5" class="node" id="0_3" cx="530" cy="407" style="fill: rgb(115, 253, 255); stroke: rgb(115, 253, 255);"></circle><circle r="15.5" class="node" id="1_0" cx="660" cy="287" style="fill: rgb(115, 253, 255); stroke: rgb(115, 253, 255);"></circle><circle r="15.5" class="node" id="1_1" cx="660" cy="327" style="fill: rgb(115, 253, 255); stroke: rgb(115, 253, 255);"></circle><circle r="15.5" class="node" id="1_2" cx="660" cy="367" style="fill: rgb(115, 253, 255); stroke: rgb(115, 253, 255);"></circle><circle r="15.5" class="node" id="1_3" cx="660" cy="407" style="fill: rgb(115, 253, 255); stroke: rgb(115, 253, 255);"></circle><circle r="15.5" class="node" id="2_0" cx="790" cy="347" style="fill: rgb(115, 253, 255); stroke: rgb(115, 253, 255);"></circle><text class="text" dy=".35em" x="495" y="447" style="font-size: 12px;"></text><text class="text" dy=".35em" x="625" y="447" style="font-size: 12px;"></text><text class="text" dy=".35em" x="755" y="447" style="font-size: 12px;"></text></g><defs><marker id="arrow" viewBox="0 -5 10 10" markerWidth="7" markerHeight="7" orient="auto" refX="55.4"><path d="M0,-5L10,0L0,5" style="stroke: rgb(80, 80, 80); fill: none;"></path></marker></defs></svg>